<svg width="48" height="48" viewBox="0 0 48 48" fill="none" xmlns="http://www.w3.org/2000/svg">
  <rect width="48" height="48" rx="13" fill="#D8FF4F"/>
  <path d="M17 24H31M24 17V31" stroke="#171815" stroke-width="3.2" stroke-linecap="round"/>
  <path d="M17 18.5C14.515 18.5 12.5 20.515 12.5 23C12.5 25.485 14.515 27.5 17 27.5M31 18.5C33.485 18.5 35.5 20.515 35.5 23C35.5 25.485 33.485 27.5 31 27.5M20.5 17C20.5 14.515 18.485 12.5 16 12.5C13.515 12.5 11.5 14.515 11.5 17C11.5 19.485 13.515 21.5 16 21.5M27.5 31C27.5 33.485 29.515 35.5 32 35.5C34.485 35.5 36.5 33.485 36.5 31C36.5 28.515 34.485 26.5 32 26.5M20.5 31C20.5 33.485 18.485 35.5 16 35.5C13.515 35.5 11.5 33.485 11.5 31C11.5 28.515 13.515 26.5 16 26.5M27.5 17C27.5 14.515 29.515 12.5 32 12.5C34.485 12.5 36.5 14.515 36.5 17C36.5 19.485 34.485 21.5 32 21.5" stroke="#171815" stroke-width="3.2" stroke-linecap="round" stroke-linejoin="round"/>
</svg>
